# xmcd CD database file
#
# Track frame offsets:
#	150
#	11255
#	26602
#	38965
#	52564
#	64740
#	77890
#	91295
#	104582
#	116992
#	131047
#	145137
#	157260
#	170667
#	183577
#	197570
#	211195
#	223252
#	237990
#	251167
#
# Disc length: 3529 seconds
#
# Revision: 0
# Processed by: cddbd v1.5.1PL0 Copyright (c) Steve Scherf et al.
# Submitted via: CDex 1.51
#
DISCID=260dc714
DTITLE=Various Artist - Steady Rock Blues CD 1
DYEAR=1900
DGENRE=Blues
TTITLE0=Hudlle "Leadbell" Ledbetter/I've Got a Pretty Flower
TTITLE1=Big Bill Broonzy/Friendless Blues
TTITLE2=Big Bill Broonzy/Skoodie do Do
TTITLE3=Big Bill Broonzy/Black Cat Rag
TTITLE4=Big Bill Broonzy/Mississipi River Blues
TTITLE5=Mississippi John Hurt/AinÄ't No Tellin'
TTITLE6=Mississippi John Hurt/Loul Collins
TTITLE7=James Yancey - James Edward Yancey/Steady Rock Blues
TTITLE8=Sleepy John Estes/Drop Down
TTITLE9=Sleepy John Estes/Poor Man's Friend
TTITLE10=Blind Willie McTell/Searching The Desssert For The Blues
TTITLE11=James "Kokomo" Arnold/Set Down Gal
TTITLE12=Willian "Count" Basie/Sent For You Yesterday
TTITLE13=Arthur William "Big Boy" Crudup/That's All Right
TTITLE14=Arthur William "Big Boy" Crudup/My Mama Don't Allow Me
TTITLE15=Francis Joseph "Muggsy" Spanier/Beale Stree Blues
TTITLE16="Blind Boy Fuller" Fulton Allen/Pistol Slapper Blues
TTITLE17=Hot Lips Pages/Thirsty Mama Blues
TTITLE18=Hot Lips Pages/Pagin' Mr Page
TTITLE19=Benjamin David "Benny" Goodman/Livery Stable Blues
EXTD=
EXTT0=
EXTT1=
EXTT2=
EXTT3=
EXTT4=
EXTT5=
EXTT6=
EXTT7=
EXTT8=
EXTT9=
EXTT10=
EXTT11=
EXTT12=
EXTT13=
EXTT14=
EXTT15=
EXTT16=
EXTT17=
EXTT18=
EXTT19=
PLAYORDER=
